<svg id="visual" viewBox="0 0 900 300" width="900" height="300" xmlns="http://www.w3.org/2000/svg" xmlns:xlink="http://www.w3.org/1999/xlink" version="1.1"><rect x="0" y="0" width="900" height="300" fill="#fff"></rect><path d="M0 126L90 169L180 183L270 146L360 92L450 143L540 199L630 77L720 178L810 85L900 207L900 301L810 301L720 301L630 301L540 301L450 301L360 301L270 301L180 301L90 301L0 301Z" fill="#f6d6bb"></path><path d="M0 164L90 188L180 225L270 169L360 168L450 181L540 132L630 188L720 238L810 185L900 132L900 301L810 301L720 301L630 301L540 301L450 301L360 301L270 301L180 301L90 301L0 301Z" fill="#b19683"></path><path d="M0 177L90 233L180 229L270 176L360 195L450 241L540 237L630 229L720 193L810 220L900 203L900 301L810 301L720 301L630 301L540 301L450 301L360 301L270 301L180 301L90 301L0 301Z" fill="#705b4f"></path><path d="M0 223L90 238L180 244L270 277L360 213L450 261L540 240L630 234L720 214L810 266L900 273L900 301L810 301L720 301L630 301L540 301L450 301L360 301L270 301L180 301L90 301L0 301Z" fill="#352720"></path></svg>