<svg id="visual" viewBox="0 0 900 50" width="900" height="50" xmlns="http://www.w3.org/2000/svg" xmlns:xlink="http://www.w3.org/1999/xlink" version="1.1"><rect x="0" y="0" width="900" height="50" fill="#fff"></rect><path d="M0 40L25 40.3C50 40.7 100 41.3 150 41C200 40.7 250 39.3 300 39.5C350 39.7 400 41.3 450 40.7C500 40 550 37 600 37.8C650 38.7 700 43.3 750 44.2C800 45 850 42 875 40.5L900 39L900 0L875 0C850 0 800 0 750 0C700 0 650 0 600 0C550 0 500 0 450 0C400 0 350 0 300 0C250 0 200 0 150 0C100 0 50 0 25 0L0 0Z" fill="#ff7481"></path><path d="M0 44L25 41.3C50 38.7 100 33.3 150 32.7C200 32 250 36 300 38.7C350 41.3 400 42.7 450 42.2C500 41.7 550 39.3 600 36.5C650 33.7 700 30.3 750 29.2C800 28 850 29 875 29.5L900 30L900 0L875 0C850 0 800 0 750 0C700 0 650 0 600 0C550 0 500 0 450 0C400 0 350 0 300 0C250 0 200 0 150 0C100 0 50 0 25 0L0 0Z" fill="#ff777e"></path><path d="M0 31L25 31.5C50 32 100 33 150 33.8C200 34.7 250 35.3 300 36C350 36.7 400 37.3 450 37.8C500 38.3 550 38.7 600 37.3C650 36 700 33 750 30.8C800 28.7 850 27.3 875 26.7L900 26L900 0L875 0C850 0 800 0 750 0C700 0 650 0 600 0C550 0 500 0 450 0C400 0 350 0 300 0C250 0 200 0 150 0C100 0 50 0 25 0L0 0Z" fill="#ff797b"></path><path d="M0 29L25 30C50 31 100 33 150 33.3C200 33.7 250 32.3 300 30.5C350 28.7 400 26.3 450 27.2C500 28 550 32 600 32.7C650 33.3 700 30.7 750 29.7C800 28.7 850 29.3 875 29.7L900 30L900 0L875 0C850 0 800 0 750 0C700 0 650 0 600 0C550 0 500 0 450 0C400 0 350 0 300 0C250 0 200 0 150 0C100 0 50 0 25 0L0 0Z" fill="#ff7c78"></path><path d="M0 23L25 22.7C50 22.3 100 21.7 150 22.2C200 22.7 250 24.3 300 24.5C350 24.7 400 23.3 450 21.8C500 20.3 550 18.7 600 19.8C650 21 700 25 750 27.2C800 29.3 850 29.7 875 29.8L900 30L900 0L875 0C850 0 800 0 750 0C700 0 650 0 600 0C550 0 500 0 450 0C400 0 350 0 300 0C250 0 200 0 150 0C100 0 50 0 25 0L0 0Z" fill="#ff7f76"></path><path d="M0 28L25 27.8C50 27.7 100 27.3 150 26C200 24.7 250 22.3 300 22.5C350 22.7 400 25.3 450 26C500 26.7 550 25.3 600 24.2C650 23 700 22 750 20.7C800 19.3 850 17.7 875 16.8L900 16L900 0L875 0C850 0 800 0 750 0C700 0 650 0 600 0C550 0 500 0 450 0C400 0 350 0 300 0C250 0 200 0 150 0C100 0 50 0 25 0L0 0Z" fill="#fe8273"></path><path d="M0 20L25 18.8C50 17.7 100 15.3 150 15.7C200 16 250 19 300 18.8C350 18.7 400 15.3 450 14.3C500 13.3 550 14.7 600 16.5C650 18.3 700 20.7 750 20C800 19.3 850 15.7 875 13.8L900 12L900 0L875 0C850 0 800 0 750 0C700 0 650 0 600 0C550 0 500 0 450 0C400 0 350 0 300 0C250 0 200 0 150 0C100 0 50 0 25 0L0 0Z" fill="#fd8571"></path><path d="M0 14L25 13.7C50 13.3 100 12.7 150 13C200 13.3 250 14.7 300 15.3C350 16 400 16 450 16.3C500 16.7 550 17.3 600 16C650 14.7 700 11.3 750 10.2C800 9 850 10 875 10.5L900 11L900 0L875 0C850 0 800 0 750 0C700 0 650 0 600 0C550 0 500 0 450 0C400 0 350 0 300 0C250 0 200 0 150 0C100 0 50 0 25 0L0 0Z" fill="#fd886f"></path><path d="M0 7L25 7.2C50 7.3 100 7.7 150 8.2C200 8.7 250 9.3 300 8.8C350 8.3 400 6.7 450 6C500 5.3 550 5.7 600 6.3C650 7 700 8 750 8.3C800 8.7 850 8.3 875 8.2L900 8L900 0L875 0C850 0 800 0 750 0C700 0 650 0 600 0C550 0 500 0 450 0C400 0 350 0 300 0C250 0 200 0 150 0C100 0 50 0 25 0L0 0Z" fill="#fc8a6d"></path><path d="M0 7L25 6.5C50 6 100 5 150 5.3C200 5.7 250 7.3 300 7.3C350 7.3 400 5.7 450 5.3C500 5 550 6 600 6C650 6 700 5 750 5.2C800 5.3 850 6.7 875 7.3L900 8L900 0L875 0C850 0 800 0 750 0C700 0 650 0 600 0C550 0 500 0 450 0C400 0 350 0 300 0C250 0 200 0 150 0C100 0 50 0 25 0L0 0Z" fill="#fb8d6b"></path><path d="M0 0L25 0.2C50 0.3 100 0.7 150 1.8C200 3 250 5 300 5C350 5 400 3 450 2.8C500 2.7 550 4.3 600 4.7C650 5 700 4 750 3.3C800 2.7 850 2.3 875 2.2L900 2L900 0L875 0C850 0 800 0 750 0C700 0 650 0 600 0C550 0 500 0 450 0C400 0 350 0 300 0C250 0 200 0 150 0C100 0 50 0 25 0L0 0Z" fill="#fa9069"></path></svg>